<?xml version="1.0" encoding="UTF-8"?>
<svg xmlns="http://www.w3.org/2000/svg" height="32" viewBox="0 0 576.8 611.3" width="32" style="background-color: #E0C0A2; border-radius: 80px;" >
  <g>
    <path d="M462.9,257.1c-35.1-28.1-138.5-22.7-181.7,12.3c9-32.9,21.4-63.6,39.1-93c0.5-1.3,1.4-2.4,1.4-3 c0-1.6-1.1-2.7-2.7-2.7c-2.4,0-10.2,1.6-13.9,3.7c-0.5,0.3-0.8,0.3-1.4,0.8h-0.3c0,0.5-0.3,0.8-0.3,0.8 c-17.2,21.4-45,57.6-73.2,90.1c-16.6-3.2-33.8-7-49.6-8.6c-27.1-3.2-55-3.5-57.6,29c-0.5,6.4,0.5,12.9,2.7,16.6 c2.4,3.5,6.7,1.3,4.8-2.4c-1.6-2.7-1.6-6.4-0.3-10.2c7.5-20.6,30.3-23.1,49.1-22c14.8,1.1,30,2.7,45,4.6 c-21.2,24.1-41.8,45.3-57.6,56c-13.7,9.1-29.5,14.5-43.7,14.5c-6.7,0-12.3-1.3-16.3-4c-5.4-3.5-8-7.8-8-14.2c0-11.3-5.4-5.6-5.4,0 c0,9.9,3.7,16.9,11,22c6.2,4.3,14.2,6.7,24.1,6.7c15.3,0,30-5.4,44-15.8c18.8-13.7,40.5-37.5,61.9-64.1c10.7,1.3,21.2,2.7,31.9,3.8 c-2.4,9.6-4,18.8-4.6,27.3c-1.9,17.1,4.3,30,15.5,30c2.4,0,5.8-0.3,9.8-1.3c2.3-0.6,4.9-1.5,7.5-2.7c2.9-1.3,5.9-3.1,8.9-5.5 c19-15.3,31.1-33,31.9-34.9c1.4-3.2-2.1-3.5-3.2-2.4c-7,9.4-17.4,21.2-29.7,30.6c-5.8,4.4-11.1,7.8-15.4,9.5 c-7.4,2.9-12.3,1.1-13.3-8.6c-0.3-2.8-0.3-6.2,0.1-10.3c0.2-3,0.4-5.9,0.8-8.8c3.3-7.7,9.7-15,18.1-21.7c2.4-1.9,5-3.8,7.8-5.6 c4.3-2.9,9.1-5.6,14.1-8.2c0.4-0.2,0.8-0.4,1.3-0.6c26.5-13.2,60.6-21.4,90.1-20.7c72.1,2.1,83.1,60.3,43.4,108.3 c-26.8,32.4-83.6,60.1-122.5,31.4c11.3-24.1,51.2-106.7,76.1-106.7c1.9,0,3.5,2.7,3.2-0.8c-1.4-7-10.3-9.6-13.5-9.4 c-13.2,0.6-38.3,39.2-45.3,51.8c-8.1,14.6-24.1,48.5-28.7,59.7c-1.1-0.3-18.5-14.2-18.5-20.4c0-5.1,0-4,2.1-8.6 c1.6-3.7,1.6-5.1,0.5-5.9c-1.9-1.3-8.6,0.8-11.2,2.7c-1.4,1.4-2.4,3.2-1.9,5.4c1.1,2.7,2.4,5.1,2.1,7.5c-1.3,9.1-2.4,17.1-2.4,28.7 c0,4,2.1,24.9,15.8,24.9c7.2,0,17.7-22.2,19-24.1c12.3,9.4,30.3,13.7,48.5,13.7c54.4,0,111.3-42.9,111.3-100.3 C483.8,285.2,477.7,269.1,462.9,257.1z M267.3,272.9l-28.1-4.6c19.6-24.1,38.3-49.6,53.9-70.8c-0.5,1.1-0.8,1.9-1.3,3 C283.3,221.7,273.7,247.7,267.3,272.9z M300.7,399.4c-2.4-12.3-2.1-27.6-2.1-31.1c4.8,4.3,12.3,12.9,16.3,16.4 C313.6,387.9,304,416,300.7,399.4z" fill="#3f1f18"/>
    
    </g>
</svg>
